<svg width="268" height="289" viewBox="0 0 268 289" fill="none" xmlns="http://www.w3.org/2000/svg">
<rect opacity="0.9" x="133.5" y="38.7071" width="176.484" height="176.484" transform="rotate(45 133.5 38.7071)" stroke="white"/>
<rect opacity="0.9" x="133.5" y="9" width="177.484" height="177.484" transform="rotate(45 133.5 9)" fill="#06255B" fill-opacity="0.8" stroke="#DA5D24" stroke-width="10"/>
<path d="M69.4907 143V140.504L75.8747 130.856H70.1147V127.4H80.9627V129.896L74.5787 139.544H81.0107V143H69.4907ZM86.5361 143.288C85.2241 143.288 84.2721 142.848 83.6801 141.968C83.0881 141.072 82.7921 139.88 82.7921 138.392V131H86.9201V137.864C86.9201 138.632 87.0161 139.144 87.2081 139.4C87.4161 139.656 87.7201 139.784 88.1201 139.784C88.5041 139.784 88.8241 139.704 89.0801 139.544C89.3361 139.384 89.5921 139.112 89.8481 138.728V131H93.9761V143H90.6161L90.3281 141.416H90.2321C89.7521 141.992 89.2161 142.448 88.6241 142.784C88.0481 143.12 87.3521 143.288 86.5361 143.288ZM99.5951 143L95.6591 131H99.7871L101.083 136.232C101.371 137.432 101.659 138.68 101.947 139.976H102.043C102.331 138.68 102.619 137.432 102.907 136.232L104.203 131H108.139L104.347 143H99.5951ZM115.151 143.288C113.983 143.288 112.927 143.04 111.983 142.544C111.055 142.048 110.319 141.336 109.775 140.408C109.231 139.464 108.959 138.328 108.959 137C108.959 135.704 109.231 134.592 109.775 133.664C110.335 132.72 111.055 131.992 111.935 131.48C112.815 130.968 113.743 130.712 114.719 130.712C115.903 130.712 116.879 130.976 117.647 131.504C118.431 132.016 119.007 132.712 119.375 133.592C119.759 134.472 119.951 135.448 119.951 136.52C119.951 136.872 119.927 137.216 119.879 137.552C119.847 137.872 119.815 138.104 119.783 138.248H112.943C113.135 138.968 113.479 139.472 113.975 139.76C114.471 140.032 115.055 140.168 115.727 140.168C116.495 140.168 117.311 139.928 118.175 139.448L119.519 141.896C118.879 142.344 118.159 142.688 117.359 142.928C116.559 143.168 115.823 143.288 115.151 143.288ZM112.895 135.56H116.447C116.447 135.096 116.327 134.696 116.087 134.36C115.863 134.008 115.439 133.832 114.815 133.832C114.367 133.832 113.967 133.968 113.615 134.24C113.263 134.512 113.023 134.952 112.895 135.56ZM122.216 143V131H125.576L125.864 133.064H125.96C126.408 132.248 126.936 131.656 127.544 131.288C128.168 130.904 128.776 130.712 129.368 130.712C129.736 130.712 130.032 130.736 130.256 130.784C130.496 130.816 130.696 130.872 130.856 130.952L130.184 134.504C129.976 134.456 129.768 134.416 129.56 134.384C129.352 134.336 129.112 134.312 128.84 134.312C128.408 134.312 127.952 134.464 127.472 134.768C127.008 135.056 126.632 135.576 126.344 136.328V143H122.216ZM135.943 143.288C135.015 143.288 134.279 143.104 133.735 142.736C133.207 142.352 132.823 141.824 132.583 141.152C132.359 140.464 132.247 139.672 132.247 138.776V126.296H136.375V138.92C136.375 139.32 136.447 139.6 136.591 139.76C136.751 139.904 136.903 139.976 137.047 139.976C137.127 139.976 137.191 139.976 137.239 139.976C137.303 139.96 137.383 139.944 137.479 139.928L137.959 142.952C137.751 143.048 137.479 143.128 137.143 143.192C136.807 143.256 136.407 143.288 135.943 143.288ZM142.516 143.288C141.764 143.288 141.116 143.12 140.572 142.784C140.044 142.432 139.636 141.976 139.348 141.416C139.06 140.856 138.916 140.248 138.916 139.592C138.916 138.344 139.428 137.368 140.452 136.664C141.476 135.944 143.14 135.464 145.444 135.224C145.348 134.392 144.788 133.976 143.764 133.976C143.332 133.976 142.876 134.064 142.396 134.24C141.916 134.4 141.364 134.648 140.74 134.984L139.3 132.296C140.148 131.784 141.004 131.392 141.868 131.12C142.748 130.848 143.652 130.712 144.58 130.712C146.148 130.712 147.372 131.16 148.252 132.056C149.132 132.936 149.572 134.36 149.572 136.328V143H146.212L145.924 141.848H145.828C145.348 142.28 144.836 142.632 144.292 142.904C143.764 143.16 143.172 143.288 142.516 143.288ZM143.956 140.12C144.292 140.12 144.572 140.048 144.796 139.904C145.02 139.744 145.236 139.544 145.444 139.304V137.672C144.468 137.816 143.788 138.032 143.404 138.32C143.036 138.608 142.852 138.92 142.852 139.256C142.852 139.832 143.22 140.12 143.956 140.12ZM141.988 129.512C141.428 129.512 140.964 129.328 140.596 128.96C140.244 128.592 140.068 128.136 140.068 127.592C140.068 127.048 140.244 126.592 140.596 126.224C140.964 125.856 141.428 125.672 141.988 125.672C142.548 125.672 143.004 125.856 143.356 126.224C143.724 126.592 143.908 127.048 143.908 127.592C143.908 128.136 143.724 128.592 143.356 128.96C143.004 129.328 142.548 129.512 141.988 129.512ZM147.46 129.512C146.9 129.512 146.436 129.328 146.068 128.96C145.716 128.592 145.54 128.136 145.54 127.592C145.54 127.048 145.716 126.592 146.068 126.224C146.436 125.856 146.9 125.672 147.46 125.672C148.02 125.672 148.476 125.856 148.828 126.224C149.196 126.592 149.38 127.048 149.38 127.592C149.38 128.136 149.196 128.592 148.828 128.96C148.476 129.328 148.02 129.512 147.46 129.512ZM155.959 143.288C155.191 143.288 154.375 143.136 153.511 142.832C152.663 142.512 151.927 142.104 151.303 141.608L153.127 139.064C154.215 139.864 155.191 140.264 156.055 140.264C156.487 140.264 156.791 140.208 156.967 140.096C157.159 139.968 157.255 139.784 157.255 139.544C157.255 139.224 157.023 138.976 156.559 138.8C156.095 138.608 155.559 138.392 154.951 138.152C154.487 137.96 154.023 137.72 153.559 137.432C153.111 137.128 152.735 136.744 152.431 136.28C152.127 135.816 151.975 135.256 151.975 134.6C151.975 133.416 152.415 132.472 153.295 131.768C154.175 131.064 155.319 130.712 156.727 130.712C157.719 130.712 158.567 130.88 159.271 131.216C159.991 131.536 160.615 131.896 161.143 132.296L159.319 134.744C158.887 134.424 158.463 134.176 158.047 134C157.631 133.824 157.239 133.736 156.871 133.736C156.167 133.736 155.815 133.96 155.815 134.408C155.815 134.712 156.031 134.952 156.463 135.128C156.911 135.288 157.431 135.48 158.023 135.704C158.503 135.88 158.975 136.112 159.439 136.4C159.919 136.688 160.311 137.064 160.615 137.528C160.935 137.992 161.095 138.584 161.095 139.304C161.095 140.424 160.655 141.368 159.775 142.136C158.911 142.904 157.639 143.288 155.959 143.288ZM166.811 143.288C166.043 143.288 165.227 143.136 164.363 142.832C163.515 142.512 162.779 142.104 162.155 141.608L163.979 139.064C165.067 139.864 166.043 140.264 166.907 140.264C167.339 140.264 167.643 140.208 167.819 140.096C168.011 139.968 168.107 139.784 168.107 139.544C168.107 139.224 167.875 138.976 167.411 138.8C166.947 138.608 166.411 138.392 165.803 138.152C165.339 137.96 164.875 137.72 164.411 137.432C163.963 137.128 163.587 136.744 163.283 136.28C162.979 135.816 162.827 135.256 162.827 134.6C162.827 133.416 163.267 132.472 164.147 131.768C165.027 131.064 166.171 130.712 167.579 130.712C168.571 130.712 169.419 130.88 170.123 131.216C170.843 131.536 171.467 131.896 171.995 132.296L170.171 134.744C169.739 134.424 169.315 134.176 168.899 134C168.483 133.824 168.091 133.736 167.723 133.736C167.019 133.736 166.667 133.96 166.667 134.408C166.667 134.712 166.883 134.952 167.315 135.128C167.763 135.288 168.283 135.48 168.875 135.704C169.355 135.88 169.827 136.112 170.291 136.4C170.771 136.688 171.163 137.064 171.467 137.528C171.787 137.992 171.947 138.584 171.947 139.304C171.947 140.424 171.507 141.368 170.627 142.136C169.763 142.904 168.491 143.288 166.811 143.288ZM173.966 143V131H178.094V143H173.966ZM176.03 129.512C175.358 129.512 174.814 129.328 174.398 128.96C173.982 128.576 173.774 128.072 173.774 127.448C173.774 126.824 173.982 126.328 174.398 125.96C174.814 125.576 175.358 125.384 176.03 125.384C176.702 125.384 177.246 125.576 177.662 125.96C178.078 126.328 178.286 126.824 178.286 127.448C178.286 128.072 178.078 128.576 177.662 128.96C177.246 129.328 176.702 129.512 176.03 129.512ZM185.248 147.944C184.336 147.944 183.496 147.84 182.728 147.632C181.96 147.44 181.344 147.128 180.88 146.696C180.432 146.264 180.208 145.688 180.208 144.968C180.208 144.024 180.768 143.256 181.888 142.664V142.568C181.584 142.344 181.32 142.072 181.096 141.752C180.888 141.416 180.784 141 180.784 140.504C180.784 140.088 180.904 139.68 181.144 139.28C181.4 138.88 181.728 138.536 182.128 138.248V138.152C181.696 137.864 181.312 137.456 180.976 136.928C180.656 136.384 180.496 135.768 180.496 135.08C180.496 134.088 180.736 133.272 181.216 132.632C181.712 131.976 182.352 131.496 183.136 131.192C183.92 130.872 184.752 130.712 185.632 130.712C186.336 130.712 186.976 130.808 187.552 131H192.016V133.976H190.288C190.336 134.12 190.376 134.304 190.408 134.528C190.456 134.752 190.48 134.984 190.48 135.224C190.48 136.168 190.264 136.936 189.832 137.528C189.4 138.104 188.816 138.528 188.08 138.8C187.344 139.072 186.528 139.208 185.632 139.208C185.232 139.208 184.784 139.152 184.288 139.04C184.096 139.216 184 139.448 184 139.736C184 139.992 184.128 140.176 184.384 140.288C184.656 140.4 185.088 140.456 185.68 140.456H187.48C188.984 140.456 190.144 140.704 190.96 141.2C191.792 141.68 192.208 142.472 192.208 143.576C192.208 144.44 191.92 145.2 191.344 145.856C190.784 146.512 189.984 147.024 188.944 147.392C187.904 147.76 186.672 147.944 185.248 147.944ZM185.632 136.76C186.016 136.76 186.328 136.624 186.568 136.352C186.808 136.08 186.928 135.656 186.928 135.08C186.928 134.52 186.808 134.112 186.568 133.856C186.328 133.584 186.016 133.448 185.632 133.448C185.248 133.448 184.936 133.584 184.696 133.856C184.456 134.112 184.336 134.52 184.336 135.08C184.336 135.656 184.456 136.08 184.696 136.352C184.936 136.624 185.248 136.76 185.632 136.76ZM185.92 145.4C186.592 145.4 187.152 145.296 187.6 145.088C188.048 144.896 188.272 144.632 188.272 144.296C188.272 143.976 188.128 143.776 187.84 143.696C187.568 143.616 187.176 143.576 186.664 143.576H185.728C185.248 143.576 184.88 143.56 184.624 143.528C184.384 143.512 184.176 143.48 184 143.432C183.712 143.72 183.568 144.008 183.568 144.296C183.568 144.68 183.784 144.96 184.216 145.136C184.664 145.312 185.232 145.4 185.92 145.4ZM196.43 143.288C195.742 143.288 195.166 143.048 194.702 142.568C194.254 142.072 194.03 141.48 194.03 140.792C194.03 140.088 194.254 139.496 194.702 139.016C195.166 138.536 195.742 138.296 196.43 138.296C197.134 138.296 197.71 138.536 198.158 139.016C198.606 139.496 198.83 140.088 198.83 140.792C198.83 141.48 198.606 142.072 198.158 142.568C197.71 143.048 197.134 143.288 196.43 143.288Z" fill="white"/>
</svg>
