<svg width="210" height="190" viewBox="0 0 210 190" fill="none" xmlns="http://www.w3.org/2000/svg">
<rect opacity="0.9" x="88.132" y="7.70711" width="123.636" height="123.636" transform="rotate(45 88.132 7.70711)" stroke="#FF7C40"/>
<rect opacity="0.9" x="115.131" y="7" width="124.636" height="124.636" transform="rotate(45 115.131 7)" fill="#06255B" fill-opacity="0.8" stroke="#06255B" stroke-width="9"/>
<path d="M97.8825 96.048L97.6405 97.038H100.281L100.039 96.048C99.8625 95.3587 99.6865 94.6107 99.5105 93.804C99.3345 92.9973 99.1585 92.2347 98.9825 91.516H98.8945C98.7479 92.2347 98.5865 92.9973 98.4105 93.804C98.2345 94.6107 98.0585 95.3587 97.8825 96.048ZM92.3825 103L96.7385 88.7H101.315L105.671 103H101.667L100.963 99.964H96.9585L96.2545 103H92.3825ZM110.73 107.532C109.894 107.532 109.124 107.437 108.42 107.246C107.716 107.07 107.152 106.784 106.726 106.388C106.316 105.992 106.11 105.464 106.11 104.804C106.11 103.939 106.624 103.235 107.65 102.692V102.604C107.372 102.399 107.13 102.149 106.924 101.856C106.734 101.548 106.638 101.167 106.638 100.712C106.638 100.331 106.748 99.9567 106.968 99.59C107.203 99.2233 107.504 98.908 107.87 98.644V98.556C107.474 98.292 107.122 97.918 106.814 97.434C106.521 96.9353 106.374 96.3707 106.374 95.74C106.374 94.8307 106.594 94.0827 107.034 93.496C107.489 92.8947 108.076 92.4547 108.794 92.176C109.513 91.8827 110.276 91.736 111.082 91.736C111.728 91.736 112.314 91.824 112.842 92H116.934V94.728H115.35C115.394 94.86 115.431 95.0287 115.46 95.234C115.504 95.4393 115.526 95.652 115.526 95.872C115.526 96.7373 115.328 97.4413 114.932 97.984C114.536 98.512 114.001 98.9007 113.326 99.15C112.652 99.3993 111.904 99.524 111.082 99.524C110.716 99.524 110.305 99.4727 109.85 99.37C109.674 99.5313 109.586 99.744 109.586 100.008C109.586 100.243 109.704 100.411 109.938 100.514C110.188 100.617 110.584 100.668 111.126 100.668H112.776C114.155 100.668 115.218 100.895 115.966 101.35C116.729 101.79 117.11 102.516 117.11 103.528C117.11 104.32 116.846 105.017 116.318 105.618C115.805 106.219 115.072 106.689 114.118 107.026C113.165 107.363 112.036 107.532 110.73 107.532ZM111.082 97.28C111.434 97.28 111.72 97.1553 111.94 96.906C112.16 96.6567 112.27 96.268 112.27 95.74C112.27 95.2267 112.16 94.8527 111.94 94.618C111.72 94.3687 111.434 94.244 111.082 94.244C110.73 94.244 110.444 94.3687 110.224 94.618C110.004 94.8527 109.894 95.2267 109.894 95.74C109.894 96.268 110.004 96.6567 110.224 96.906C110.444 97.1553 110.73 97.28 111.082 97.28ZM111.346 105.2C111.962 105.2 112.476 105.105 112.886 104.914C113.297 104.738 113.502 104.496 113.502 104.188C113.502 103.895 113.37 103.711 113.106 103.638C112.857 103.565 112.498 103.528 112.028 103.528H111.17C110.73 103.528 110.393 103.513 110.158 103.484C109.938 103.469 109.748 103.44 109.586 103.396C109.322 103.66 109.19 103.924 109.19 104.188C109.19 104.54 109.388 104.797 109.784 104.958C110.195 105.119 110.716 105.2 111.346 105.2ZM118.736 103V92H122.52V103H118.736ZM120.628 90.636C120.012 90.636 119.513 90.4673 119.132 90.13C118.751 89.778 118.56 89.316 118.56 88.744C118.56 88.172 118.751 87.7173 119.132 87.38C119.513 87.028 120.012 86.852 120.628 86.852C121.244 86.852 121.743 87.028 122.124 87.38C122.505 87.7173 122.696 88.172 122.696 88.744C122.696 89.316 122.505 89.778 122.124 90.13C121.743 90.4673 121.244 90.636 120.628 90.636ZM128.462 103.264C127.611 103.264 126.937 103.095 126.438 102.758C125.954 102.406 125.602 101.922 125.382 101.306C125.177 100.675 125.074 99.9493 125.074 99.128V87.688H128.858V99.26C128.858 99.6267 128.924 99.8833 129.056 100.03C129.203 100.162 129.342 100.228 129.474 100.228C129.547 100.228 129.606 100.228 129.65 100.228C129.709 100.213 129.782 100.199 129.87 100.184L130.31 102.956C130.119 103.044 129.87 103.117 129.562 103.176C129.254 103.235 128.887 103.264 128.462 103.264ZM133.871 103.264C133.24 103.264 132.712 103.044 132.287 102.604C131.876 102.149 131.671 101.607 131.671 100.976C131.671 100.331 131.876 99.788 132.287 99.348C132.712 98.908 133.24 98.688 133.871 98.688C134.516 98.688 135.044 98.908 135.455 99.348C135.865 99.788 136.071 100.331 136.071 100.976C136.071 101.607 135.865 102.149 135.455 102.604C135.044 103.044 134.516 103.264 133.871 103.264Z" fill="white"/>
</svg>
